<?xml version="1.0" standalone="no"?>
<!DOCTYPE svg PUBLIC "-//W3C//DTD SVG 20010904//EN"
 "http://www.w3.org/TR/2001/REC-SVG-20010904/DTD/svg10.dtd">
<svg version="1.0" xmlns="http://www.w3.org/2000/svg"
 width="256.000000pt" height="256.000000pt" viewBox="0 0 256.000000 256.000000"
 preserveAspectRatio="xMidYMid meet">
<metadata>
Created by potrace 1.11, written by Peter Selinger 2001-2013
</metadata>
<g transform="translate(0.000000,256.000000) scale(0.100000,-0.100000)"
fill="#000000" stroke="none">
<path d="M1182 2512 c-17 -26 -39 -65 -48 -87 -9 -22 -27 -50 -41 -62 -23 -22
-26 -22 -71 -8 -69 21 -120 25 -132 10 -12 -15 -15 -95 -5 -176 l6 -55 -52
-12 c-57 -14 -89 -35 -89 -61 0 -29 69 -124 136 -188 36 -35 63 -67 60 -71 -3
-5 6 -20 19 -34 23 -25 24 -29 11 -60 -11 -26 -11 -42 -2 -78 10 -40 10 -48
-5 -64 -11 -11 -16 -29 -14 -48 3 -16 -3 -40 -11 -53 -8 -13 -17 -36 -18 -52
-2 -15 -4 -29 -5 -31 0 -1 -11 3 -23 9 -12 7 -31 12 -43 13 -18 1 -20 8 -21
57 0 58 -17 89 -48 89 -17 0 -56 -46 -56 -66 0 -18 -4 -18 -49 6 -46 23 -79
30 -105 20 -31 -10 -27 -37 9 -72 19 -17 32 -35 30 -39 -3 -4 -22 -10 -42 -14
-98 -18 -84 -94 16 -95 l44 0 -27 -25 c-28 -26 -33 -54 -14 -73 17 -17 36 -15
77 10 38 24 66 25 92 2 8 -8 21 -14 27 -14 7 0 20 -4 30 -9 65 -33 188 -77
239 -86 53 -8 59 -26 23 -65 -85 -91 -112 -250 -64 -373 l24 -61 -21 -45 c-21
-46 -26 -63 -32 -119 -4 -34 6 -118 17 -143 5 -12 -3 -22 -29 -38 -41 -24 -67
-75 -59 -117 11 -62 58 -86 170 -86 57 0 87 -4 94 -13 10 -12 83 -31 101 -27
67 15 327 20 429 8 167 -20 303 2 349 57 35 43 -31 103 -125 113 -58 6 -62 8
-73 40 -14 38 -95 114 -122 114 -15 0 -17 8 -14 52 3 57 -13 113 -46 160 -18
25 -20 34 -10 47 39 54 55 108 55 191 0 70 -4 94 -25 140 -14 30 -41 70 -59
87 -21 20 -28 33 -19 33 113 4 259 28 300 51 31 16 91 -6 114 -42 24 -37 59
-53 86 -39 24 13 24 17 0 71 -23 51 -20 62 15 49 35 -14 67 -12 89 4 28 20 7
59 -45 86 -46 24 -50 44 -14 72 34 27 31 81 -5 86 -13 2 -33 -1 -45 -7 -32
-16 -107 -33 -114 -26 -3 3 -8 18 -9 33 -3 24 -35 62 -52 62 -4 0 -15 -6 -26
-13 -13 -10 -18 -28 -19 -65 -1 -29 -5 -52 -11 -53 -12 -1 -29 -4 -96 -18 -81
-18 -167 -26 -217 -22 -10 1 -10 6 -2 21 6 12 8 30 4 42 -4 14 -3 18 5 13 22
-13 113 -18 121 -5 4 6 5 31 4 56 -3 36 0 44 14 45 117 4 182 22 182 49 0 11
-13 56 -30 102 -34 94 -33 88 -20 88 28 0 124 45 155 73 l36 32 -31 45 c-33
46 -117 130 -132 130 -19 0 5 66 32 90 3 3 18 31 33 63 34 73 35 104 3 117
-35 13 -133 30 -188 32 -51 1 -48 -2 -53 63 -4 40 -18 101 -32 138 -12 28 -21
37 -39 37 -32 0 -132 -41 -180 -74 l-38 -26 -51 49 c-55 54 -121 101 -140 101
-7 0 -27 -21 -43 -48z"/>
</g>
</svg>
